<?xml version="1.0" standalone="no"?>
<!DOCTYPE svg PUBLIC "-//W3C//DTD SVG 20010904//EN"
 "http://www.w3.org/TR/2001/REC-SVG-20010904/DTD/svg10.dtd">
<svg version="1.0" xmlns="http://www.w3.org/2000/svg"
 width="260.000000pt" height="260.000000pt" viewBox="0 0 260.000000 260.000000"
 preserveAspectRatio="xMidYMid meet">
<metadata>
Created by potrace 1.11, written by Peter Selinger 2001-2013
</metadata>
<g transform="translate(0.000000,260.000000) scale(0.100000,-0.100000)"
fill="#000000" stroke="none">
<path d="M1145 2280 c3 -5 2 -10 -4 -10 -5 0 -22 -11 -37 -25 -15 -14 -31 -25
-36 -25 -5 0 -7 -4 -4 -9 4 -5 -7 -23 -23 -39 -17 -16 -27 -32 -24 -36 3 -3
-2 -8 -11 -12 -9 -3 -13 -10 -10 -15 3 -5 0 -9 -6 -9 -6 0 -9 -4 -6 -9 3 -5
-1 -14 -9 -21 -8 -7 -12 -16 -9 -21 3 -5 1 -9 -5 -9 -6 0 -7 -7 -4 -17 4 -11
3 -14 -5 -9 -7 4 -12 2 -12 -3 0 -19 -2 -26 -13 -46 -6 -11 -10 -23 -9 -27 1
-5 -3 -8 -8 -8 -6 0 -10 -3 -9 -7 3 -18 -14 -53 -25 -53 -6 0 -4 -4 4 -10 12
-8 12 -10 -2 -15 -9 -4 -14 -13 -12 -20 3 -7 0 -16 -5 -20 -6 -3 -9 -11 -6
-16 4 -5 2 -9 -4 -9 -5 0 -8 -9 -6 -20 2 -11 -1 -22 -6 -25 -5 -4 -7 -11 -4
-16 4 -5 1 -9 -5 -9 -6 0 -9 -4 -6 -9 4 -5 0 -12 -6 -15 -10 -5 -10 -7 0 -12
10 -5 9 -11 -5 -27 -10 -11 -12 -17 -6 -13 9 5 11 2 7 -8 -3 -9 -10 -14 -15
-11 -4 3 -6 -4 -4 -15 2 -11 -2 -20 -8 -20 -8 0 -8 -3 1 -9 11 -6 10 -11 -3
-25 -10 -10 -12 -16 -4 -16 8 0 9 -4 0 -13 -8 -10 -7 -17 2 -26 9 -10 8 -11
-6 -5 -13 4 -16 2 -11 -9 3 -8 0 -18 -5 -22 -6 -3 -8 -12 -4 -18 10 -16 11
-47 2 -47 -11 0 -7 -44 6 -52 6 -5 5 -8 -4 -8 -11 0 -11 -3 0 -17 12 -15 12
-16 -1 -8 -8 5 0 -7 19 -28 19 -20 38 -34 43 -31 5 3 14 1 21 -5 8 -6 18 -6
27 -1 9 5 19 5 27 -2 8 -6 16 -8 20 -5 3 4 15 1 27 -5 19 -10 20 -10 7 5 -12
15 -11 17 5 17 16 0 17 2 4 10 -13 9 -13 10 0 10 9 0 11 3 4 8 -16 11 -27 45
-11 36 9 -6 9 -5 0 7 -10 12 -10 18 0 29 6 7 7 10 1 7 -7 -4 -10 8 -10 33 1
22 5 40 9 40 5 0 5 5 2 10 -3 6 -3 16 2 23 4 6 8 26 8 42 0 17 4 36 9 44 6 9
5 12 -1 8 -5 -3 -10 0 -10 8 0 8 4 12 8 10 4 -3 10 3 14 12 3 10 1 19 -4 21
-7 2 -6 9 2 17 8 7 13 24 12 37 -1 12 5 29 14 36 9 8 10 11 4 7 -16 -8 -17 17
-1 33 10 10 14 23 20 70 1 6 5 12 9 12 4 0 6 8 4 18 -1 9 5 26 14 36 9 11 10
16 3 12 -11 -6 -11 -4 -3 10 11 22 19 46 17 56 0 4 8 14 19 23 11 9 13 13 5 9
-13 -7 -13 -5 -1 9 7 9 10 17 6 17 -5 0 -1 8 8 18 10 10 14 22 10 25 -3 4 -1
7 5 7 6 0 9 6 6 14 -3 7 7 23 21 34 14 11 26 23 26 26 -3 24 0 26 16 17 11 -5
18 -23 20 -45 1 -26 -2 -34 -10 -29 -9 5 -9 3 -1 -8 11 -15 12 -267 1 -286 -4
-6 -1 -14 5 -16 10 -4 9 -8 -2 -16 -13 -10 -13 -11 0 -11 12 0 12 -2 1 -9 -10
-6 -10 -10 -1 -16 9 -6 9 -10 -1 -16 -11 -7 -11 -9 1 -9 13 0 13 -1 0 -10 -8
-5 -10 -10 -4 -10 7 0 10 -12 8 -30 -2 -16 1 -32 7 -35 7 -5 6 -12 -2 -21 -8
-10 -8 -14 0 -14 6 0 11 -5 11 -12 0 -25 42 -97 61 -103 11 -4 17 -11 14 -16
-3 -5 1 -6 9 -3 9 3 16 1 16 -4 0 -7 10 -8 29 -2 16 4 32 6 34 3 8 -7 47 30
41 39 -3 4 2 8 11 8 9 0 13 5 10 10 -3 6 -1 10 6 10 7 0 9 3 6 6 -3 4 -1 16 5
28 7 11 11 24 10 29 -1 4 2 7 6 7 4 0 9 12 10 26 1 14 9 32 17 40 17 18 20 28
4 18 -6 -3 -4 7 5 24 8 16 13 32 10 35 -3 3 -1 13 5 24 11 21 19 45 17 54 0 3
5 13 13 22 7 10 10 17 5 17 -5 0 -2 5 6 10 12 8 12 10 1 10 -10 0 -11 3 -2 13
6 8 8 17 4 20 -3 4 -1 7 6 7 7 0 9 5 6 10 -3 6 -1 10 6 10 7 0 9 3 6 7 -4 3
-1 13 6 21 8 11 8 14 0 9 -10 -6 -11 11 -3 33 1 3 2 9 0 15 -1 5 7 2 18 -8 13
-12 18 -26 15 -45 -3 -15 -5 -67 -6 -117 -2 -66 -6 -94 -17 -103 -8 -8 -10
-11 -3 -8 13 7 22 -12 15 -36 -2 -10 -9 -15 -16 -11 -7 4 -7 1 1 -8 10 -12 10
-18 0 -29 -8 -8 -8 -11 -1 -7 7 4 14 0 18 -8 3 -8 2 -14 -2 -14 -18 3 -26 -2
-14 -9 10 -7 10 -15 2 -36 -5 -15 -6 -25 -1 -22 5 3 11 -1 14 -8 4 -9 -1 -17
-11 -19 -16 -4 -16 -5 0 -6 12 -1 15 -8 12 -26 -2 -14 0 -25 6 -25 6 0 8 -4 5
-10 -3 -5 -1 -10 5 -10 6 0 10 -8 8 -17 -2 -12 4 -19 20 -21 12 -2 20 -7 17
-12 -3 -4 4 -10 15 -13 12 -3 18 -1 14 5 -4 6 2 6 14 -1 27 -14 35 -14 26 1
-5 7 -2 9 8 5 9 -3 25 3 36 13 14 13 22 16 25 7 2 -6 9 3 15 21 6 18 7 30 2
27 -5 -3 -12 6 -16 20 -3 14 -10 25 -15 25 -5 0 -9 9 -9 21 0 13 -4 18 -12 13
-9 -5 -9 -2 1 9 7 9 9 17 4 17 -8 0 -11 15 -17 77 -1 12 -5 25 -9 29 -3 4 -2
15 4 25 5 11 6 19 1 19 -5 0 -8 22 -7 50 1 28 -2 47 -8 43 -5 -3 -4 3 2 14 7
14 7 23 -1 31 -9 9 -9 12 1 12 11 0 11 3 0 17 -10 11 -10 14 -1 9 6 -4 12 -3
12 3 0 5 -4 12 -10 16 -6 3 -6 15 0 29 5 15 5 27 -3 35 -7 7 -7 11 0 11 6 0 8
12 6 28 -2 15 -4 35 -4 45 0 9 -4 15 -8 13 -4 -3 -8 1 -8 9 0 8 4 12 9 9 4 -3
8 0 8 5 0 6 -5 11 -11 11 -6 0 -9 9 -6 20 3 13 1 18 -6 13 -7 -4 -8 0 -4 11 4
10 3 15 -3 11 -6 -3 -10 1 -10 9 0 9 -7 16 -16 16 -8 0 -13 4 -10 9 7 11 -22
23 -35 15 -5 -3 -9 1 -9 8 0 11 -2 11 -9 0 -4 -7 -17 -14 -29 -15 -11 0 -19
-4 -16 -8 2 -4 -2 -9 -10 -12 -8 -3 -22 -26 -31 -51 -10 -25 -22 -43 -27 -40
-4 3 -8 2 -7 -3 4 -22 -2 -43 -11 -38 -6 4 -7 -1 -3 -10 3 -10 0 -21 -8 -26
-12 -7 -12 -9 1 -9 13 0 13 -1 0 -10 -15 -9 -16 -14 -19 -53 0 -10 -5 -16 -9
-13 -4 2 -9 -7 -10 -21 -1 -14 -6 -31 -12 -38 -5 -6 -7 -15 -3 -18 3 -4 -2 -7
-13 -7 -15 0 -16 -2 -5 -9 12 -8 12 -12 2 -25 -8 -9 -10 -16 -6 -16 5 0 1 -8
-8 -18 -12 -13 -14 -21 -6 -29 8 -8 7 -13 -2 -18 -8 -6 -10 -4 -4 5 5 8 4 11
-2 7 -6 -4 -9 -18 -8 -32 2 -16 -2 -25 -11 -25 -8 0 -14 -5 -14 -11 0 -5 6 -7
13 -3 8 5 8 2 -2 -9 -20 -25 -29 -21 -25 13 2 19 -1 30 -9 30 -8 0 -8 3 -2 8
14 9 14 45 0 54 -6 5 -6 8 2 8 8 0 9 9 3 30 -5 18 -5 30 0 30 6 0 6 10 0 25
-5 14 -6 25 -2 25 4 0 7 12 6 28 -1 15 -3 27 -4 27 -1 0 -3 10 -6 23 -3 17 -1
21 8 16 9 -6 9 -3 0 9 -8 9 -11 20 -9 25 3 4 2 14 -3 22 -5 8 -5 21 1 32 7 14
6 16 -6 12 -13 -5 -14 -2 -5 20 5 14 6 26 2 26 -4 0 -9 17 -10 37 -2 21 -10
45 -19 55 -9 10 -13 18 -9 18 4 0 2 9 -4 20 -6 11 -18 20 -26 20 -8 0 -13 4
-10 9 9 13 -19 21 -75 21 -31 0 -48 -4 -44 -10z"/>
<path d="M1945 2110 c6 -10 5 -11 -31 -15 -20 -2 -74 -33 -74 -42 0 -2 6 -1
13 3 6 4 4 -2 -6 -13 -9 -11 -14 -23 -10 -26 3 -4 1 -7 -6 -7 -9 0 -9 -5 0
-21 8 -16 8 -20 -1 -14 -9 6 -9 3 -1 -12 6 -11 7 -24 3 -28 -4 -5 -1 -5 6 -1
7 5 12 1 12 -10 0 -10 3 -15 6 -11 4 3 15 -4 26 -16 11 -12 16 -16 12 -8 -5
10 3 8 27 -6 19 -11 40 -18 48 -15 8 3 11 0 7 -7 -4 -6 -3 -11 2 -11 6 0 5
-10 -1 -24 -7 -13 -15 -22 -19 -20 -5 3 -8 1 -8 -5 0 -5 6 -12 13 -14 10 -4
10 -6 0 -6 -7 -1 -13 -12 -13 -25 0 -13 -5 -26 -12 -28 -7 -3 -8 -9 -3 -18 12
-20 14 -50 3 -50 -5 0 -2 -7 6 -16 9 -8 13 -20 10 -26 -4 -7 -2 -8 4 -4 7 4
12 2 12 -4 0 -18 23 -37 41 -33 9 3 23 -3 33 -12 9 -9 16 -12 16 -7 0 6 11 9
25 7 14 -1 25 2 25 8 0 6 3 7 6 4 4 -3 16 -1 28 5 11 7 23 12 26 13 14 1 150
131 150 142 0 5 6 15 14 25 8 9 12 19 9 22 -4 3 -1 6 5 6 7 0 12 7 12 16 0 9
5 12 13 8 9 -6 9 -4 -1 8 -10 13 -10 18 -1 24 8 5 10 3 4 -7 -5 -8 -5 -11 0
-7 5 5 9 23 10 42 1 26 -2 33 -14 28 -8 -3 -12 -1 -8 4 3 5 -3 10 -14 10 -10
0 -19 -6 -19 -12 0 -7 -7 -14 -15 -18 -8 -3 -14 -9 -13 -13 3 -13 -13 -53 -22
-53 -4 0 -10 -9 -13 -21 -4 -13 -10 -18 -18 -13 -7 4 -10 3 -6 -4 9 -14 -3
-43 -14 -36 -5 3 -9 1 -9 -4 0 -18 -59 -77 -77 -77 -10 -1 -17 -6 -16 -12 1
-6 -6 -9 -17 -6 -11 3 -20 12 -20 19 0 8 -6 14 -12 14 -9 0 -8 4 2 10 8 5 11
10 6 10 -5 0 -2 8 5 17 10 11 10 14 2 9 -7 -4 -13 -3 -13 3 0 5 3 11 8 13 13
6 43 68 38 77 -3 5 2 8 12 7 9 0 16 5 14 13 -1 7 3 19 9 27 9 11 8 18 -2 31
-12 14 -12 16 0 9 9 -6 12 -5 9 5 -3 8 -13 13 -23 11 -9 -2 -14 1 -11 7 9 13
-5 20 -45 23 -19 1 -37 7 -41 13 -5 6 -8 5 -8 -4 0 -11 -4 -10 -16 5 -8 10
-13 13 -9 6 5 -10 1 -10 -20 0 -18 8 -22 14 -13 19 7 5 14 13 14 19 1 5 3 11
4 13 7 7 6 47 -1 47 -5 0 -9 7 -9 16 0 10 -5 14 -16 10 -8 -3 -13 -2 -10 3 3
5 -1 12 -10 15 -8 3 -12 2 -9 -4z"/>
<path d="M2381 1673 c-35 -32 -42 -59 -26 -95 4 -10 11 -15 16 -12 5 3 6 -1 3
-9 -3 -9 4 -21 15 -29 12 -8 19 -17 16 -20 -5 -5 -3 -5 63 -12 31 -3 45 0 49
10 3 8 9 11 14 8 5 -3 12 2 15 10 3 9 12 16 20 16 8 0 14 7 14 15 0 8 5 15 10
15 15 0 11 83 -5 104 -11 14 -15 16 -15 5 -1 -10 -3 -9 -11 4 -6 9 -14 15 -20
12 -5 -4 -9 -1 -9 4 0 6 -5 11 -11 11 -5 0 -7 -5 -3 -12 5 -7 3 -8 -7 -3 -19
13 -51 14 -71 4 -9 -5 -18 -5 -20 -1 -2 4 -19 -7 -37 -25z"/>
<path d="M1346 1392 c-3 -5 -29 -8 -58 -7 -58 2 -81 -3 -73 -15 3 -5 -3 -7
-12 -5 -10 1 -24 -3 -32 -9 -12 -9 -13 -8 -6 4 8 13 7 13 -8 1 -10 -8 -20 -11
-23 -8 -4 3 -13 0 -21 -8 -8 -8 -23 -15 -34 -15 -10 0 -19 -4 -19 -10 0 -5 -5
-10 -11 -10 -15 0 -35 -22 -41 -48 -4 -14 -2 -20 5 -15 7 4 8 0 4 -11 -5 -14
-3 -17 8 -12 8 3 15 0 15 -7 0 -7 4 -6 10 3 5 8 14 15 20 15 6 0 14 5 18 12 5
8 12 8 25 -2 15 -10 15 -14 3 -18 -9 -4 -12 -14 -9 -26 3 -12 1 -21 -6 -21 -6
0 -8 -7 -4 -17 5 -12 3 -14 -7 -8 -10 6 -11 4 -4 -6 13 -22 13 -38 -1 -33 -9
4 -12 -4 -10 -26 1 -16 -2 -33 -7 -36 -5 -3 -3 -13 4 -22 10 -12 10 -14 1 -8
-8 4 -13 2 -13 -4 0 -6 -4 -9 -8 -6 -10 6 -9 -25 2 -42 4 -6 3 -12 -2 -12 -5
0 -8 -13 -7 -30 1 -16 -3 -30 -8 -30 -5 0 -4 -7 3 -15 9 -11 9 -15 1 -15 -7 0
-10 -10 -7 -25 3 -14 0 -25 -5 -25 -6 0 -5 -9 2 -21 8 -15 8 -19 0 -15 -6 4
-11 3 -11 -3 0 -5 6 -12 13 -14 9 -4 8 -6 -2 -6 -11 -1 -11 -4 0 -18 12 -15
12 -16 -5 -10 -14 6 -16 4 -9 -5 16 -21 23 -59 10 -51 -7 4 -6 -1 2 -10 9 -11
10 -17 2 -17 -6 0 -11 -5 -11 -11 0 -5 4 -8 9 -4 5 3 13 -5 17 -17 8 -26 29
-49 38 -41 3 3 9 -2 12 -11 5 -14 9 -15 15 -4 6 10 11 10 20 1 8 -8 18 -9 31
-2 10 5 18 7 18 4 0 -3 8 -1 18 4 12 6 18 19 16 33 -1 13 -3 27 -3 31 -1 5 -5
6 -10 3 -9 -6 -11 6 -14 94 -1 30 -6 58 -12 63 -6 4 -5 11 5 17 13 9 13 11 1
19 -12 8 -12 12 -2 25 8 9 10 16 6 16 -4 0 -2 7 5 15 11 13 10 14 -5 9 -11 -5
-16 -3 -12 2 7 12 19 97 19 132 0 12 5 22 10 22 6 0 5 7 -2 15 -10 12 -9 16 2
20 8 3 14 16 12 28 -1 12 5 32 12 44 10 16 11 24 2 29 -8 5 -6 11 6 20 10 7
17 15 17 18 -1 3 0 8 0 11 1 3 3 10 4 15 1 6 3 15 4 21 0 5 6 7 13 3 7 -4 8
-3 4 5 -4 6 0 18 8 27 12 12 16 12 17 2 0 -7 4 -4 9 7 5 11 9 15 9 8 1 -6 9
-12 19 -12 49 -2 72 -6 72 -11 0 -3 12 -11 28 -17 29 -14 52 -53 52 -90 0 -13
-5 -23 -11 -23 -6 0 -9 -7 -5 -15 3 -8 1 -15 -4 -15 -5 0 -6 -7 -3 -17 4 -10
2 -14 -5 -9 -6 3 -13 -3 -17 -14 -4 -11 -11 -18 -16 -15 -5 4 -9 1 -9 -6 0 -7
-3 -9 -7 -6 -3 4 -12 -2 -20 -12 -8 -12 -22 -18 -33 -16 -11 2 -20 -2 -20 -8
0 -8 -3 -8 -8 -2 -11 16 -34 17 -44 3 -6 -11 -10 -10 -17 1 -7 11 -10 9 -16
-8 -3 -12 -11 -19 -16 -16 -5 4 -4 -6 2 -22 6 -15 10 -30 10 -33 -1 -3 2 -5 7
-5 4 0 13 -4 21 -9 10 -7 12 -6 6 3 -5 9 -1 12 11 11 11 -1 21 -1 24 -1 3 1
20 4 37 5 22 3 31 0 26 -8 -4 -7 -1 -6 9 1 8 7 18 9 22 5 4 -4 11 -7 15 -7 13
0 41 -33 41 -48 0 -9 6 -18 13 -21 8 -4 8 -8 1 -11 -5 -3 -9 -19 -8 -35 1 -17
-2 -30 -7 -30 -5 0 -9 -6 -9 -14 0 -8 -7 -17 -16 -20 -9 -3 -12 -11 -8 -18 5
-9 3 -9 -9 1 -13 10 -17 10 -17 1 0 -8 -9 -11 -25 -8 -22 5 -23 3 -13 -10 11
-13 10 -14 -9 -3 -16 8 -23 8 -23 1 0 -6 -7 -4 -16 4 -17 18 -28 21 -19 6 3
-6 -1 -7 -9 -4 -9 3 -14 9 -12 13 3 4 -9 7 -25 7 -19 -1 -34 -8 -41 -20 -8
-15 -8 -17 3 -10 11 6 12 5 3 -7 -8 -11 -4 -20 14 -39 14 -14 22 -18 18 -10
-6 12 -5 12 6 -1 7 -9 19 -14 27 -11 8 3 11 0 7 -7 -7 -11 21 -15 72 -11 12 1
22 -4 22 -12 0 -10 2 -10 9 1 5 7 13 11 19 7 6 -3 13 -2 17 3 3 6 11 8 18 5 7
-2 30 7 51 21 20 14 42 23 47 19 5 -3 9 -2 8 3 -3 20 2 34 11 28 6 -3 10 3 10
14 0 12 5 21 11 21 5 0 8 4 4 9 -3 5 -1 12 4 15 4 3 9 17 9 31 0 15 -5 22 -12
18 -6 -4 -5 1 3 10 12 15 11 20 -4 37 -10 11 -15 23 -12 27 4 3 -1 12 -11 20
-9 8 -11 11 -3 7 9 -5 12 -3 7 4 -4 7 -14 12 -23 12 -9 0 -13 3 -9 7 3 4 -12
15 -34 25 -37 17 -58 37 -26 25 10 -4 13 0 11 14 -2 11 0 17 6 14 15 -10 79
38 119 90 13 17 13 18 0 11 -12 -6 -12 -5 1 6 21 18 30 46 18 54 -6 4 -6 11 2
20 9 11 9 14 0 14 -7 0 -10 4 -6 9 3 5 -2 16 -10 24 -8 9 -15 19 -15 24 0 13
-39 43 -56 43 -8 0 -12 5 -9 10 4 6 -5 10 -19 10 -14 0 -26 5 -26 11 0 8 -4 8
-14 0 -10 -9 -16 -8 -25 3 -7 8 -19 12 -27 9 -8 -3 -14 -1 -14 4 0 11 -36 11
-46 0 -13 -13 -26 -7 -20 8 6 16 1 21 -8 7z m-86 -18 c0 -8 -19 -13 -24 -6 -3
5 1 9 9 9 8 0 15 -2 15 -3z m-135 -114 c3 -5 1 -10 -4 -10 -6 0 -11 5 -11 10
0 6 2 10 4 10 3 0 8 -4 11 -10z"/>
<path d="M421 1377 c-16 -16 -13 -27 5 -27 8 0 12 -4 9 -10 -3 -5 1 -10 10
-10 10 0 13 -5 9 -12 -4 -7 -4 -10 1 -6 4 4 15 3 22 -4 11 -9 17 -9 24 3 6 10
9 10 9 2 0 -7 5 -13 11 -13 5 0 8 4 5 8 -5 9 52 7 61 -2 12 -12 30 15 26 38
-5 25 -28 41 -44 30 -5 -3 -9 0 -9 6 0 8 -6 7 -21 -1 -15 -8 -19 -8 -15 0 4 6
3 11 -3 11 -5 0 -13 -5 -16 -10 -4 -6 -11 -8 -16 -4 -18 11 -58 11 -68 1z
m189 -51 c0 -3 -4 -8 -10 -11 -5 -3 -10 -1 -10 4 0 6 5 11 10 11 6 0 10 -2 10
-4z"/>
<path d="M2146 1363 c-14 -13 -17 -14 -12 -3 4 8 -2 4 -14 -10 -12 -14 -18
-18 -14 -10 4 8 3 11 -1 7 -19 -17 -22 -98 -5 -125 10 -15 11 -15 6 3 -5 18
-4 17 14 -4 11 -13 20 -20 20 -15 0 4 5 3 12 -4 14 -14 20 -45 7 -36 -5 3 -9
-2 -9 -10 0 -9 -5 -16 -11 -16 -5 0 -7 -4 -4 -10 3 -5 1 -10 -6 -10 -7 0 -9
-3 -6 -7 4 -3 -5 -16 -18 -29 -14 -13 -25 -28 -25 -34 0 -6 -4 -9 -9 -5 -6 3
-14 -2 -19 -12 -8 -14 -13 -15 -24 -5 -8 6 -19 8 -23 4 -5 -4 -5 -1 -1 6 4 7
12 9 18 6 7 -5 8 -2 2 7 -12 20 -12 61 0 78 8 11 8 13 0 8 -6 -3 -11 0 -11 8
0 8 5 11 10 8 6 -4 8 0 4 10 -3 10 -2 17 4 17 6 0 6 6 0 18 -6 11 -6 24 0 34
7 12 4 20 -11 31 -11 7 -17 17 -13 21 4 4 -1 4 -11 0 -13 -5 -17 -4 -12 4 4 7
-1 10 -14 7 -11 -2 -20 1 -20 8 0 8 -3 8 -11 0 -6 -6 -18 -9 -27 -6 -10 4 -13
2 -8 -6 4 -6 2 -18 -4 -26 -10 -12 -10 -15 0 -15 9 0 9 -4 -1 -17 -11 -13 -11
-15 -1 -9 16 10 13 -25 -3 -36 -6 -5 -5 -11 4 -17 8 -5 10 -14 5 -22 -5 -8 -9
-20 -10 -26 -1 -7 -9 -20 -18 -29 -9 -8 -16 -20 -16 -26 0 -6 -3 -8 -7 -5 -3
4 -15 -1 -26 -10 -11 -10 -17 -13 -14 -6 4 6 1 14 -5 16 -10 4 -9 6 1 6 11 1
11 4 1 16 -10 12 -10 15 1 15 9 0 10 3 4 8 -10 7 -14 72 -5 72 10 0 2 102 -9
113 -15 15 -87 15 -107 0 -10 -7 -14 -13 -8 -13 5 0 2 -5 -6 -10 -10 -6 -11
-10 -2 -10 6 0 12 -9 12 -21 0 -13 -4 -18 -12 -13 -9 5 -9 2 1 -9 11 -14 11
-20 0 -34 -10 -11 -10 -14 -1 -9 6 4 12 3 12 -3 0 -5 -6 -12 -12 -14 -10 -4
-9 -6 1 -6 11 -1 11 -4 0 -18 -8 -10 -9 -14 -2 -10 12 8 11 -11 -2 -44 -3 -10
-1 -20 5 -24 8 -5 7 -11 -2 -23 -11 -13 -11 -14 1 -7 11 6 13 4 8 -9 -4 -10
-1 -19 8 -23 13 -4 13 -8 3 -21 -10 -12 -10 -14 0 -8 7 4 12 2 12 -6 0 -10 2
-10 9 1 7 11 9 11 14 0 3 -11 7 -11 17 -2 9 8 17 9 30 1 14 -9 24 -7 47 10 17
12 33 18 37 15 4 -4 4 1 0 11 -6 16 -4 17 14 7 19 -10 21 -9 15 5 -4 12 -3 15
5 10 7 -4 12 -12 12 -17 0 -11 29 -44 39 -44 3 -1 17 -7 31 -14 22 -13 23 -12
13 0 -10 13 -8 15 17 13 17 -1 33 2 36 7 3 5 10 7 15 4 5 -4 9 -1 9 4 0 6 7
11 15 11 8 0 14 3 13 8 -1 4 9 19 23 34 19 20 29 24 42 16 11 -6 16 -16 12
-27 -4 -12 1 -17 17 -18 13 -1 24 -6 26 -11 2 -6 12 -7 24 -4 13 3 19 1 15 -5
-4 -6 3 -8 18 -5 14 2 25 8 25 13 0 5 8 9 18 9 29 0 152 127 152 158 0 6 4 12
9 12 12 0 8 63 -5 67 -14 5 -56 -32 -46 -41 4 -4 -1 -12 -11 -17 -9 -6 -15
-14 -12 -20 4 -5 1 -9 -5 -9 -6 0 -8 -4 -5 -10 3 -5 -1 -10 -9 -10 -9 0 -15
-4 -13 -8 1 -4 -12 -22 -29 -39 -40 -39 -77 -39 -78 -1 -1 14 3 26 9 25 5 -1
9 8 7 21 -3 20 7 27 31 23 5 -1 6 3 2 8 -3 6 1 21 10 35 14 21 14 25 1 39 -8
8 -13 17 -11 19 3 3 -2 5 -10 6 -8 1 -22 3 -30 4 -8 1 -15 5 -15 10 0 5 -10 3
-22 -3 -13 -6 -20 -8 -16 -4 4 4 1 13 -6 21 -8 7 -11 24 -9 39 4 18 -1 31 -17
45 -28 24 -22 24 -44 3z"/>
<path d="M865 1114 c-11 -8 -25 -12 -31 -10 -20 8 -46 -41 -35 -63 6 -10 7
-22 3 -26 -4 -5 -2 -5 5 -1 6 3 16 -1 21 -10 18 -32 102 -19 102 15 0 5 10 13
21 16 16 5 18 9 9 15 -7 4 -10 12 -6 18 3 6 2 13 -4 17 -6 4 -8 10 -5 14 2 5
-7 9 -21 9 -15 0 -29 4 -33 10 -4 7 -13 5 -26 -4z"/>
<path d="M454 1088 c-3 -5 -10 -6 -15 -3 -5 4 -9 1 -9 -6 0 -7 -3 -9 -7 -6 -3
4 -12 -1 -20 -11 -9 -10 -11 -11 -7 -2 7 12 5 13 -8 3 -8 -7 -18 -10 -21 -6
-4 3 -7 1 -7 -6 0 -8 -6 -11 -16 -7 -8 3 -12 2 -9 -4 3 -6 -1 -10 -11 -10 -9
0 -23 -8 -31 -17 -8 -10 -12 -12 -8 -5 3 6 1 12 -4 12 -6 0 -11 -5 -11 -11 0
-6 -7 -8 -16 -5 -9 3 -12 2 -9 -5 4 -6 1 -10 -6 -8 -28 3 -153 -3 -142 -7 7
-3 9 -12 6 -20 -5 -13 6 -18 23 -11 4 1 10 -8 15 -20 5 -14 17 -23 29 -23 11
0 20 -5 20 -11 0 -5 4 -8 9 -4 5 3 17 -2 26 -11 11 -12 19 -14 27 -6 7 7 19 7
34 2 15 -6 26 -5 30 1 4 6 11 5 22 -3 12 -10 14 -10 8 0 -4 7 -1 12 9 12 9 0
14 4 11 8 -3 4 8 7 24 6 16 -1 29 1 28 5 -2 21 4 31 21 31 23 0 22 -23 -3 -51
-10 -12 -15 -23 -12 -27 3 -3 6 -1 6 3 0 5 7 0 16 -11 8 -10 13 -14 10 -7 -4
6 -2 14 4 18 5 3 10 1 10 -4 0 -6 5 -11 11 -11 5 0 7 5 3 11 -4 8 0 8 15 0 17
-10 20 -9 15 4 -4 9 -3 15 2 14 17 -4 44 13 44 28 0 8 5 11 10 8 6 -3 10 -1
10 5 0 6 5 8 10 5 6 -4 10 -3 9 2 -3 20 2 33 14 30 6 -1 11 4 10 11 -3 10 9
14 33 11 4 0 10 5 15 12 8 14 -7 39 -23 39 -5 0 -16 7 -25 16 -9 8 -22 13 -30
10 -8 -3 -11 -1 -8 4 6 9 -8 14 -27 11 -5 0 -8 4 -8 9 0 6 -5 10 -11 10 -5 0
-7 -6 -3 -12 5 -8 1 -8 -10 1 -19 16 -65 21 -72 9z"/>
<path d="M2221 865 c-12 -6 -18 -15 -14 -20 4 -4 0 -5 -9 -2 -20 7 -25 -9 -5
-16 9 -4 8 -6 -2 -6 -11 -1 -11 -4 0 -18 12 -15 12 -16 -1 -8 -12 7 -13 6 -3
-7 7 -8 9 -18 5 -22 -4 -4 -2 -7 3 -6 21 5 36 0 30 -10 -3 -5 0 -10 7 -10 7 0
19 -4 27 -9 11 -7 11 -12 0 -32 -7 -13 -12 -27 -11 -31 1 -3 -6 -12 -16 -20
-16 -12 -16 -11 -3 7 8 11 -4 0 -27 -25 -24 -25 -47 -45 -52 -45 -4 0 -12 -3
-16 -8 -4 -4 -12 -7 -18 -7 -6 0 -4 5 4 10 9 6 10 10 3 10 -6 0 -15 -5 -18
-10 -9 -15 -38 18 -31 36 3 8 10 12 16 9 5 -3 10 1 10 9 0 9 5 16 10 16 6 0
10 8 10 19 0 22 23 44 35 33 4 -4 3 2 -2 13 -6 11 -9 28 -8 38 2 9 -1 17 -6
17 -5 0 -9 7 -9 16 0 8 -4 12 -10 9 -5 -3 -10 2 -10 12 0 15 -2 16 -10 3 -7
-11 -10 -11 -10 -2 0 7 -4 10 -10 7 -5 -3 -10 -1 -10 6 0 8 -3 9 -13 0 -8 -6
-17 -7 -21 -3 -4 4 -14 -2 -22 -12 -8 -11 -14 -17 -14 -13 0 14 -41 -34 -50
-58 -7 -18 -14 -23 -26 -18 -11 4 -15 2 -11 -4 8 -12 -12 -22 -30 -16 -7 3
-13 11 -13 18 0 16 -27 31 -50 29 -8 -1 -21 -2 -28 -3 -6 0 -11 -7 -10 -13 2
-7 -2 -12 -9 -11 -7 2 -10 -3 -7 -10 2 -7 -2 -21 -9 -32 -14 -18 -15 -18 -26
3 -10 19 -9 22 6 23 10 0 13 3 7 5 -13 5 4 54 19 54 5 0 6 3 4 8 -3 4 6 8 19
8 15 1 24 -4 24 -12 0 -8 5 -14 11 -14 5 0 8 4 5 8 -2 4 0 14 5 22 8 12 9 11
7 -4 -2 -10 4 -21 12 -23 11 -3 12 -2 3 4 -10 7 -9 15 3 38 8 16 12 26 8 22
-4 -4 -13 1 -21 11 -10 11 -12 12 -8 2 4 -8 -1 -6 -9 4 -12 15 -16 16 -16 5 0
-12 -2 -12 -10 1 -7 11 -10 11 -10 2 0 -7 -4 -11 -9 -7 -5 3 -12 1 -16 -4 -3
-5 -14 -8 -25 -6 -12 2 -18 0 -15 -6 4 -5 1 -9 -6 -9 -6 0 -29 -18 -50 -41
-21 -23 -31 -38 -22 -35 13 5 14 4 3 -8 -13 -17 -21 -78 -8 -70 4 3 8 -4 8
-16 0 -12 5 -18 10 -15 6 3 10 1 10 -4 0 -6 7 -11 16 -11 9 0 12 -5 8 -12 -6
-10 -4 -10 8 0 13 10 17 10 22 -5 4 -10 2 -19 -3 -21 -6 -2 -8 -9 -5 -14 4 -6
2 -8 -3 -5 -6 4 -17 -1 -24 -10 -12 -14 -12 -16 1 -8 13 8 13 6 1 -8 -7 -9
-17 -15 -20 -12 -4 2 -8 -2 -8 -10 0 -8 5 -12 11 -9 6 3 3 -1 -8 -10 -10 -8
-15 -19 -12 -24 3 -6 -1 -13 -9 -16 -13 -5 -14 -10 -4 -28 7 -13 12 -25 11
-28 -4 -12 11 -40 21 -40 7 0 6 -4 -3 -10 -11 -7 2 -10 44 -10 50 0 57 2 52
16 -5 14 -4 15 9 4 13 -11 14 -10 9 5 -5 13 -4 16 4 11 7 -4 12 -1 12 8 0 9 5
16 10 16 6 0 10 7 10 15 0 8 5 15 12 15 6 0 8 3 5 7 -4 3 1 15 10 25 16 18 16
19 -3 13 -19 -7 -19 -6 0 9 11 9 20 29 20 45 1 16 4 33 8 37 4 4 3 13 -3 21
-9 10 -8 13 1 13 7 0 10 7 6 16 -6 16 17 48 28 37 3 -4 6 -2 6 4 0 6 9 9 20 6
11 -3 20 -10 20 -15 0 -5 -4 -7 -8 -4 -5 3 -4 -10 2 -29 6 -19 16 -35 23 -35
6 0 15 -9 18 -20 4 -11 10 -18 15 -15 5 3 18 -5 29 -17 12 -12 21 -17 21 -11
0 7 12 8 35 3 21 -5 35 -4 35 2 0 5 4 7 9 4 13 -8 89 32 100 52 5 10 19 18 30
19 12 1 19 -2 16 -7 -3 -4 2 -11 11 -14 10 -4 13 -2 8 6 -5 8 -3 8 7 2 21 -14
68 -12 73 3 3 7 10 13 15 13 14 0 77 62 74 72 -2 4 2 8 7 8 6 0 10 7 10 15 0
8 5 15 10 15 6 0 10 9 10 21 0 13 4 18 13 13 6 -4 3 2 -8 13 -23 24 -37 17
-55 -27 -7 -16 -17 -27 -23 -23 -5 3 -7 2 -4 -4 3 -5 -7 -25 -24 -44 -16 -19
-29 -29 -29 -24 0 6 -5 3 -10 -5 -7 -11 -10 -11 -10 -2 0 7 -4 10 -10 7 -5 -3
-10 3 -10 15 0 14 4 19 12 14 8 -5 9 -2 5 9 -3 10 -2 17 4 17 6 0 8 4 4 9 -3
6 3 14 12 20 10 6 14 11 9 11 -5 0 -3 6 3 14 9 11 8 17 -3 29 -8 8 -13 17 -10
19 2 3 -12 5 -33 6 -46 2 -61 15 -42 38 11 14 11 16 0 10 -10 -7 -12 -4 -7 12
5 15 1 21 -18 24 -13 3 -34 0 -45 -7z m-151 -140 c-7 -8 -10 -21 -7 -28 3 -8
-1 -14 -9 -14 -7 0 -10 5 -7 10 3 5 -1 13 -8 18 -11 7 -10 9 4 9 11 0 15 4 11
12 -4 7 -3 8 4 4 7 -4 12 -2 12 5 0 7 3 9 6 6 4 -4 1 -13 -6 -22z m-295 -216
c-4 -12 -8 -27 -9 -33 -1 -6 -4 -15 -7 -21 -4 -5 -9 -22 -13 -37 -4 -18 -12
-26 -25 -25 -15 1 -17 5 -11 18 5 9 6 19 3 23 -3 3 0 6 8 6 11 0 11 2 2 8 -10
6 -10 12 3 28 8 10 12 13 8 5 -5 -9 -3 -12 5 -7 6 4 10 15 9 24 -2 9 3 16 10
15 6 -2 12 2 12 7 0 6 3 10 6 10 3 0 2 -10 -1 -21z"/>
<path d="M780 777 c0 -11 -5 -15 -11 -11 -6 3 -15 0 -20 -7 -6 -10 -9 -10 -9
-2 0 7 -7 10 -15 7 -8 -4 -12 -11 -8 -18 4 -6 0 -6 -9 2 -13 10 -18 10 -24 1
-5 -8 -3 -9 6 -4 8 5 11 4 6 -3 -4 -6 -22 -10 -41 -8 -20 1 -33 -2 -32 -8 1
-6 -16 -11 -40 -11 -22 0 -39 -4 -36 -8 2 -4 -7 -6 -21 -3 -14 3 -28 1 -31 -4
-8 -12 23 -33 40 -26 8 3 15 1 15 -5 0 -6 4 -8 9 -5 5 4 11 2 13 -4 1 -5 18
-10 36 -12 19 -1 36 -6 39 -11 2 -4 12 -2 21 5 12 10 14 10 8 1 -4 -7 -2 -13
3 -13 6 0 11 4 11 10 0 5 10 8 22 6 12 -1 29 3 36 11 8 7 18 11 23 8 5 -4 9
-1 9 5 0 6 4 9 9 6 5 -3 14 1 21 10 7 8 19 13 26 10 7 -3 15 2 18 10 3 9 10
12 16 9 6 -4 8 3 6 17 -3 13 -5 25 -5 28 -1 3 -12 7 -26 8 -38 3 -49 6 -57 17
-4 6 -8 2 -8 -8z m-250 -83 c0 -8 -19 -13 -24 -6 -3 5 1 9 9 9 8 0 15 -2 15
-3z"/>
<path d="M885 740 c-3 -5 -1 -10 4 -10 6 0 11 5 11 10 0 6 -2 10 -4 10 -3 0
-8 -4 -11 -10z"/>
<path d="M1373 533 c-3 -7 -9 -11 -13 -8 -5 3 -11 1 -14 -4 -4 -5 -2 -12 3
-15 5 -3 7 -15 4 -26 -4 -13 2 -27 16 -39 11 -10 18 -20 16 -23 -3 -3 10 -4
29 -3 34 3 70 21 77 40 2 6 7 9 11 8 3 -1 5 5 3 15 -2 9 -4 25 -4 35 -1 9 -8
17 -16 17 -8 0 -15 5 -15 10 0 15 -91 8 -97 -7z"/>
<path d="M938 443 c-6 -7 -16 -13 -23 -13 -7 0 -12 -8 -11 -17 2 -14 13 -18
42 -19 42 -1 81 9 77 20 -7 16 -2 20 8 6 9 -12 10 -12 5 3 -3 10 -6 22 -6 25
0 13 -81 8 -92 -5z"/>
</g>
</svg>
